# xmcd
#
# Track frame offsets: 
#        150
#        17315
#        31492
#        47595
#        66908
#        80771
#        117461
#        128331
#        140759
#
# Disc length: 2563 seconds
#
# Revision: 0
# Processed by: cddbd v1.5.2PL0 Copyright (c) Steve Scherf et al.
# Submitted via: ExactAudioCopyFreeDBPlugin 1.0
#
DISCID=750a0109
DTITLE=Mel Tillis - M-M-Mel Live
DYEAR=1980
DGENRE=Country
TTITLE0=Remember Me
TTITLE1=What Did I Promise Her Last Night
TTITLE2=Send Me Down To Tucson
TTITLE3=Good Woman Blues I Got The Hoss
TTITLE4=Heart Over Mind
TTITLE5=Who's Julie
TTITLE6=I Believe In You
TTITLE7=Ruby, Don't Take Your Love To Town
TTITLE8=Detroit City
EXTD=
EXTT0=
EXTT1=
EXTT2=
EXTT3=
EXTT4=
EXTT5=
EXTT6=
EXTT7=
EXTT8=
PLAYORDER=
